<?xml version="1.0" encoding="UTF-8" standalone="no"?>
<!-- Created with Inkscape (http://www.inkscape.org/) -->

<svg
   xmlns:dc="http://purl.org/dc/elements/1.1/"
   xmlns:cc="http://creativecommons.org/ns#"
   xmlns:rdf="http://www.w3.org/1999/02/22-rdf-syntax-ns#"
   xmlns:svg="http://www.w3.org/2000/svg"
   xmlns="http://www.w3.org/2000/svg"
   xmlns:xlink="http://www.w3.org/1999/xlink"
   xmlns:sodipodi="http://sodipodi.sourceforge.net/DTD/sodipodi-0.dtd"
   xmlns:inkscape="http://www.inkscape.org/namespaces/inkscape"
   width="299"
   height="300"
   id="svg2"
   version="1.1"
   inkscape:version="0.47 r22583"
   sodipodi:docname="control-buttons.svg">
  <title
     id="title2965">JCarousel Slider Control Buttons</title>
  <defs
     id="defs4">
    <linearGradient
       id="linearGradient3705">
      <stop
         style="stop-color:#d1d1d1;stop-opacity:1;"
         offset="0"
         id="stop3707" />
      <stop
         style="stop-color:#e4df35;stop-opacity:1;"
         offset="1"
         id="stop3709" />
    </linearGradient>
    <linearGradient
       id="linearGradient3647">
      <stop
         style="stop-color:#838383;stop-opacity:0.98431373"
         offset="0"
         id="stop3649" />
      <stop
         style="stop-color:#d5d5d5;stop-opacity:1"
         offset="1"
         id="stop3651" />
    </linearGradient>
    <inkscape:perspective
       sodipodi:type="inkscape:persp3d"
       inkscape:vp_x="0 : 526.18109 : 1"
       inkscape:vp_y="0 : 1000 : 0"
       inkscape:vp_z="744.09448 : 526.18109 : 1"
       inkscape:persp3d-origin="372.04724 : 350.78739 : 1"
       id="perspective10" />
    <inkscape:perspective
       id="perspective2824"
       inkscape:persp3d-origin="0.5 : 0.33333333 : 1"
       inkscape:vp_z="1 : 0.5 : 1"
       inkscape:vp_y="0 : 1000 : 0"
       inkscape:vp_x="0 : 0.5 : 1"
       sodipodi:type="inkscape:persp3d" />
    <filter
       inkscape:collect="always"
       id="filter3643"
       x="-0.11635383"
       width="1.2327077"
       y="-0.10076537"
       height="1.2015307"
       color-interpolation-filters="sRGB">
      <feGaussianBlur
         inkscape:collect="always"
         stdDeviation="0.69786473"
         id="feGaussianBlur3645" />
    </filter>
    <linearGradient
       inkscape:collect="always"
       xlink:href="#linearGradient3647"
       id="linearGradient3653"
       x1="276.52927"
       y1="290.95969"
       x2="276.52927"
       y2="305.94113"
       gradientUnits="userSpaceOnUse" />
    <linearGradient
       inkscape:collect="always"
       xlink:href="#linearGradient3647"
       id="linearGradient3666"
       gradientUnits="userSpaceOnUse"
       x1="276.52927"
       y1="290.95969"
       x2="276.52927"
       y2="305.94113"
       gradientTransform="translate(-211.95687,658.04166)" />
    <linearGradient
       inkscape:collect="always"
       xlink:href="#linearGradient3705"
       id="linearGradient3711"
       x1="348.05927"
       y1="334.07141"
       x2="348.05927"
       y2="347.75778"
       gradientUnits="userSpaceOnUse"
       gradientTransform="translate(-249.76524,616.12033)" />
    <linearGradient
       inkscape:collect="always"
       xlink:href="#linearGradient3647"
       id="linearGradient3737"
       gradientUnits="userSpaceOnUse"
       gradientTransform="matrix(-1,0,0,1,351.96081,623.83276)"
       x1="276.52927"
       y1="290.95969"
       x2="276.52927"
       y2="305.94113" />
    <linearGradient
       inkscape:collect="always"
       xlink:href="#linearGradient3705"
       id="linearGradient3739"
       gradientUnits="userSpaceOnUse"
       x1="348.05927"
       y1="334.07141"
       x2="348.05927"
       y2="347.75778"
       gradientTransform="matrix(-1,0,0,1,454.39626,581.91143)" />
    <linearGradient
       inkscape:collect="always"
       xlink:href="#linearGradient3647"
       id="linearGradient3757"
       gradientUnits="userSpaceOnUse"
       gradientTransform="matrix(-1,0,0,1,351.96081,589.62077)"
       x1="276.52927"
       y1="290.95969"
       x2="276.52927"
       y2="305.94113" />
    <linearGradient
       inkscape:collect="always"
       xlink:href="#linearGradient3705"
       id="linearGradient3759"
       gradientUnits="userSpaceOnUse"
       gradientTransform="matrix(-1,0,0,1,454.39627,547.69944)"
       x1="348.05927"
       y1="334.07141"
       x2="348.05927"
       y2="347.75778" />
    <linearGradient
       inkscape:collect="always"
       xlink:href="#linearGradient3647"
       id="linearGradient3817"
       gradientUnits="userSpaceOnUse"
       gradientTransform="translate(-211.95687,692.25208)"
       x1="276.52927"
       y1="290.95969"
       x2="276.52927"
       y2="305.94113" />
    <linearGradient
       inkscape:collect="always"
       xlink:href="#linearGradient3705"
       id="linearGradient3819"
       gradientUnits="userSpaceOnUse"
       gradientTransform="translate(-249.76524,650.33077)"
       x1="348.05927"
       y1="334.07141"
       x2="348.05927"
       y2="347.75778" />
    <linearGradient
       inkscape:collect="always"
       xlink:href="#linearGradient3705"
       id="linearGradient2961"
       gradientUnits="userSpaceOnUse"
       gradientTransform="translate(-249.76524,650.33077)"
       x1="348.05927"
       y1="334.07141"
       x2="348.05927"
       y2="347.75778" />
  </defs>
  <sodipodi:namedview
     id="base"
     pagecolor="#ffffff"
     bordercolor="#666666"
     borderopacity="1.0"
     inkscape:pageopacity="0.0"
     inkscape:pageshadow="2"
     inkscape:zoom="1.68003"
     inkscape:cx="-90.427142"
     inkscape:cy="150.18478"
     inkscape:document-units="px"
     inkscape:current-layer="layer1"
     showgrid="false"
     inkscape:window-width="1366"
     inkscape:window-height="691"
     inkscape:window-x="0"
     inkscape:window-y="25"
     inkscape:window-maximized="1" />
  <metadata
     id="metadata7">
    <rdf:RDF>
      <cc:Work
         rdf:about="">
        <dc:format>image/svg+xml</dc:format>
        <dc:type
           rdf:resource="http://purl.org/dc/dcmitype/StillImage" />
        <dc:title>JCarousel Slider Control Buttons</dc:title>
        <cc:license
           rdf:resource="http://creativecommons.org/licenses/by/3.0/" />
        <dc:date>31/07/2012</dc:date>
        <dc:creator>
          <cc:Agent>
            <dc:title>Santiago Hoerth Moura</dc:title>
          </cc:Agent>
        </dc:creator>
        <dc:rights>
          <cc:Agent>
            <dc:title>Código Sur</dc:title>
          </cc:Agent>
        </dc:rights>
        <dc:publisher>
          <cc:Agent>
            <dc:title>Cyclope GPL</dc:title>
          </cc:Agent>
        </dc:publisher>
      </cc:Work>
      <cc:License
         rdf:about="http://creativecommons.org/licenses/by/3.0/">
        <cc:permits
           rdf:resource="http://creativecommons.org/ns#Reproduction" />
        <cc:permits
           rdf:resource="http://creativecommons.org/ns#Distribution" />
        <cc:requires
           rdf:resource="http://creativecommons.org/ns#Notice" />
        <cc:requires
           rdf:resource="http://creativecommons.org/ns#Attribution" />
        <cc:permits
           rdf:resource="http://creativecommons.org/ns#DerivativeWorks" />
      </cc:License>
    </rdf:RDF>
  </metadata>
  <g
     inkscape:label="Capa 1"
     inkscape:groupmode="layer"
     id="layer1"
     transform="translate(0,-752.36218)">
    <g
       id="g2931"
       inkscape:export-filename="./next-horizontal-left.png"
       inkscape:export-xdpi="90"
       inkscape:export-ydpi="90">
      <path
         inkscape:export-ydpi="90"
         inkscape:export-xdpi="90"
         inkscape:export-filename="./next-horizontal-left.png"
         id="rect2832"
         d="m 80.033216,939.41109 c 3.40193,0 6.125,2.72307 6.125,6.125 l 0,20.03125 c 0,3.40193 -2.72307,6.15625 -6.125,6.15625 l -4.96875,0 -15.0625,0 -6.15625,0 0,-6.15625 0,-20.03125 0,-6.125 6.15625,0 15.0625,0 4.96875,0 z"
         style="opacity:0.97000002;fill:#101010;fill-opacity:0.85098039;stroke:none" />
      <path
         inkscape:export-ydpi="90"
         inkscape:export-xdpi="90"
         inkscape:export-filename="./next-horizontal-left.png"
         sodipodi:type="star"
         style="fill:#1a1a1a;fill-opacity:1;stroke:none;filter:url(#filter3643)"
         id="path2837"
         sodipodi:sides="3"
         sodipodi:cx="279.55972"
         sodipodi:cy="297.5257"
         sodipodi:r1="9.5964489"
         sodipodi:r2="4.7982244"
         sodipodi:arg1="0"
         sodipodi:arg2="1.0471976"
         inkscape:flatsided="true"
         inkscape:rounded="0"
         inkscape:randomized="0"
         d="m 289.15617,297.5257 -14.39467,8.31076 0,-16.62153 14.39467,8.31077 z"
         transform="translate(-211.95686,658.04166)" />
      <path
         inkscape:export-ydpi="90"
         inkscape:export-xdpi="90"
         inkscape:export-filename="./next-horizontal-left.png"
         id="path2835"
         d="m 77.199296,955.56734 c -4.79822,2.77025 -9.59645,5.54051 -14.39467,8.31076 0,-5.54051 0,-11.08102 0,-16.62153 4.79822,2.77025 9.59645,5.54051 14.39467,8.31077 z"
         style="fill:url(#linearGradient3666);fill-opacity:1;stroke:none" />
      <path
         inkscape:export-ydpi="90"
         inkscape:export-xdpi="90"
         inkscape:export-filename="./next-horizontal-left.png"
         style="opacity:0.97000002;fill:#101010;fill-opacity:0.85098039;stroke:none"
         d="m 112.34676,939.41109 c 3.40193,0 6.125,2.72307 6.125,6.125 l 0,20.03125 c 0,3.40193 -2.72307,6.15625 -6.125,6.15625 l -4.96875,0 -15.062504,0 -6.15625,0 0,-6.15625 0,-20.03125 0,-6.125 6.15625,0 15.062504,0 4.96875,0 z"
         id="path3668" />
      <path
         inkscape:export-ydpi="90"
         inkscape:export-xdpi="90"
         inkscape:export-filename="./next-horizontal-left.png"
         transform="translate(-179.64333,658.04166)"
         d="m 289.15617,297.5257 -14.39467,8.31076 0,-16.62153 14.39467,8.31077 z"
         inkscape:randomized="0"
         inkscape:rounded="0"
         inkscape:flatsided="true"
         sodipodi:arg2="1.0471976"
         sodipodi:arg1="0"
         sodipodi:r2="4.7982244"
         sodipodi:r1="9.5964489"
         sodipodi:cy="297.5257"
         sodipodi:cx="279.55972"
         sodipodi:sides="3"
         id="path3670"
         style="fill:#1a1a1a;fill-opacity:1;stroke:none;filter:url(#filter3643)"
         sodipodi:type="star" />
      <path
         inkscape:export-ydpi="90"
         inkscape:export-xdpi="90"
         inkscape:export-filename="./next-horizontal-left.png"
         style="fill:url(#linearGradient3711);fill-opacity:1;stroke:none"
         d="m 109.51284,955.56734 c -4.79822,2.77025 -9.596454,5.54051 -14.394674,8.31076 0,-5.54051 0,-11.08102 0,-16.62153 4.79822,2.77025 9.596454,5.54051 14.394674,8.31077 z"
         id="path3672" />
      <path
         inkscape:export-ydpi="90"
         inkscape:export-xdpi="90"
         inkscape:export-filename="./next-horizontal-left.png"
         style="opacity:0.46613548;fill:#cccccc;fill-opacity:1;stroke:none"
         d="m 47.735596,939.41109 c 3.40193,0 6.125,2.72307 6.125,6.125 l 0,20.03125 c 0,3.40193 -2.72307,6.15625 -6.125,6.15625 l -4.96875,0 -15.0625,0 -6.15625,0 0,-6.15625 0,-20.03125 0,-6.125 6.15625,0 15.0625,0 4.96875,0 z"
         id="path3713" />
      <path
         inkscape:export-ydpi="90"
         inkscape:export-xdpi="90"
         inkscape:export-filename="./next-horizontal-left.png"
         style="opacity:0.8;fill:#f9f9f9;fill-opacity:1;stroke:none"
         d="m 44.901676,955.56734 c -4.79822,2.77025 -9.59645,5.54051 -14.39467,8.31076 0,-5.54051 0,-11.08102 0,-16.62153 4.79822,2.77025 9.59645,5.54051 14.39467,8.31077 z"
         id="path3717" />
    </g>
    <g
       id="g2921"
       inkscape:export-filename="./prev-horizontal-right.png"
       inkscape:export-xdpi="90"
       inkscape:export-ydpi="90">
      <path
         inkscape:export-ydpi="90"
         inkscape:export-xdpi="90"
         inkscape:export-filename="./prev-horizontal-right.png"
         style="opacity:0.97000002;fill:#101010;fill-opacity:0.85098039;stroke:none"
         d="m 59.970716,905.20229 c -3.40193,0 -6.125,2.72307 -6.125,6.125 l 0,20.03125 c 0,3.40193 2.72307,6.15625 6.125,6.15625 l 4.96875,0 15.0625,0 6.15625,0 0,-6.15625 0,-20.03125 0,-6.125 -6.15625,0 -15.0625,0 -4.96875,0 z"
         id="path3721" />
      <path
         inkscape:export-ydpi="90"
         inkscape:export-xdpi="90"
         inkscape:export-filename="./prev-horizontal-right.png"
         transform="matrix(-1,0,0,1,351.96081,623.83276)"
         d="m 289.15617,297.5257 -14.39467,8.31076 0,-16.62153 14.39467,8.31077 z"
         inkscape:randomized="0"
         inkscape:rounded="0"
         inkscape:flatsided="true"
         sodipodi:arg2="1.0471976"
         sodipodi:arg1="0"
         sodipodi:r2="4.7982244"
         sodipodi:r1="9.5964489"
         sodipodi:cy="297.5257"
         sodipodi:cx="279.55972"
         sodipodi:sides="3"
         id="path3723"
         style="fill:#1a1a1a;fill-opacity:1;stroke:none;filter:url(#filter3643)"
         sodipodi:type="star" />
      <path
         inkscape:export-ydpi="90"
         inkscape:export-xdpi="90"
         inkscape:export-filename="./prev-horizontal-right.png"
         style="fill:url(#linearGradient3737);fill-opacity:1;stroke:none"
         d="m 62.804626,921.35854 c 4.79822,2.77025 9.59645,5.54051 14.39467,8.31076 0,-5.54051 0,-11.08102 0,-16.62153 -4.79822,2.77025 -9.59645,5.54051 -14.39467,8.31077 z"
         id="path3725" />
      <path
         inkscape:export-ydpi="90"
         inkscape:export-xdpi="90"
         inkscape:export-filename="./prev-horizontal-right.png"
         id="path3727"
         d="m 92.284256,905.20229 c -3.40193,0 -6.125,2.72307 -6.125,6.125 l 0,20.03125 c 0,3.40193 2.72307,6.15625 6.125,6.15625 l 4.96875,0 15.062504,0 6.15625,0 0,-6.15625 0,-20.03125 0,-6.125 -6.15625,0 -15.062504,0 -4.96875,0 z"
         style="opacity:0.97000002;fill:#101010;fill-opacity:0.85098039;stroke:none" />
      <path
         inkscape:export-ydpi="90"
         inkscape:export-xdpi="90"
         inkscape:export-filename="./prev-horizontal-right.png"
         sodipodi:type="star"
         style="fill:#1a1a1a;fill-opacity:1;stroke:none;filter:url(#filter3643)"
         id="path3729"
         sodipodi:sides="3"
         sodipodi:cx="279.55972"
         sodipodi:cy="297.5257"
         sodipodi:r1="9.5964489"
         sodipodi:r2="4.7982244"
         sodipodi:arg1="0"
         sodipodi:arg2="1.0471976"
         inkscape:flatsided="true"
         inkscape:rounded="0"
         inkscape:randomized="0"
         d="m 289.15617,297.5257 -14.39467,8.31076 0,-16.62153 14.39467,8.31077 z"
         transform="matrix(-1,0,0,1,384.27435,623.83276)" />
      <path
         inkscape:export-ydpi="90"
         inkscape:export-xdpi="90"
         inkscape:export-filename="./prev-horizontal-right.png"
         id="path3731"
         d="m 95.118166,921.35854 c 4.79822,2.77025 9.596454,5.54051 14.394674,8.31076 0,-5.54051 0,-11.08102 0,-16.62153 -4.79822,2.77025 -9.596454,5.54051 -14.394674,8.31077 z"
         style="fill:url(#linearGradient3739);fill-opacity:1;stroke:none" />
      <path
         inkscape:export-ydpi="90"
         inkscape:export-xdpi="90"
         inkscape:export-filename="./prev-horizontal-right.png"
         id="path3733"
         d="m 27.673096,905.20229 c -3.40193,0 -6.125,2.72307 -6.125,6.125 l 0,20.03125 c 0,3.40193 2.72307,6.15625 6.125,6.15625 l 4.96875,0 15.0625,0 6.15625,0 0,-6.15625 0,-20.03125 0,-6.125 -6.15625,0 -15.0625,0 -4.96875,0 z"
         style="opacity:0.46613548;fill:#cccccc;fill-opacity:1;stroke:none" />
      <path
         inkscape:export-ydpi="90"
         inkscape:export-xdpi="90"
         inkscape:export-filename="./prev-horizontal-right.png"
         id="path3735"
         d="m 30.507006,921.35854 c 4.79822,2.77025 9.59645,5.54051 14.39467,8.31076 0,-5.54051 0,-11.08102 0,-16.62153 -4.79822,2.77025 -9.59645,5.54051 -14.39467,8.31077 z"
         style="opacity:0.8;fill:#f9f9f9;fill-opacity:1;stroke:none" />
    </g>
    <g
       id="g2911"
       inkscape:export-filename="./prev-horizontal-left.png"
       inkscape:export-xdpi="90"
       inkscape:export-ydpi="90">
      <path
         inkscape:export-ydpi="90"
         inkscape:export-xdpi="90"
         inkscape:export-filename="./prev-horizontal-left.png"
         style="opacity:0.97000002;fill:#101010;fill-opacity:0.85098039;stroke:none"
         d="m 80.033216,870.99021 c 3.40193,0 6.125,2.72307 6.125,6.125 l 0,20.03125 c 0,3.40193 -2.72307,6.15625 -6.125,6.15625 l -4.96875,0 -15.0625,0 -6.15625,0 0,-6.15625 0,-20.03125 0,-6.125 6.15625,0 15.0625,0 4.96875,0 z"
         id="path3741" />
      <path
         inkscape:export-ydpi="90"
         inkscape:export-xdpi="90"
         inkscape:export-filename="./prev-horizontal-left.png"
         transform="matrix(-1,0,0,1,351.96081,589.62077)"
         d="m 289.15617,297.5257 -14.39467,8.31076 0,-16.62153 14.39467,8.31077 z"
         inkscape:randomized="0"
         inkscape:rounded="0"
         inkscape:flatsided="true"
         sodipodi:arg2="1.0471976"
         sodipodi:arg1="0"
         sodipodi:r2="4.7982244"
         sodipodi:r1="9.5964489"
         sodipodi:cy="297.5257"
         sodipodi:cx="279.55972"
         sodipodi:sides="3"
         id="path3743"
         style="fill:#1a1a1a;fill-opacity:1;stroke:none;filter:url(#filter3643)"
         sodipodi:type="star" />
      <path
         inkscape:export-ydpi="90"
         inkscape:export-xdpi="90"
         inkscape:export-filename="./prev-horizontal-left.png"
         style="fill:url(#linearGradient3757);fill-opacity:1;stroke:none"
         d="m 62.804636,887.14646 c 4.79822,2.77025 9.59645,5.54051 14.39467,8.31076 0,-5.54051 0,-11.08102 0,-16.62153 -4.79822,2.77025 -9.59645,5.54051 -14.39467,8.31077 z"
         id="path3745" />
      <path
         inkscape:export-ydpi="90"
         inkscape:export-xdpi="90"
         inkscape:export-filename="./prev-horizontal-left.png"
         id="path3747"
         d="m 112.34676,870.99021 c 3.40193,0 6.125,2.72307 6.125,6.125 l 0,20.03125 c 0,3.40193 -2.72307,6.15625 -6.125,6.15625 l -4.96875,0 -15.062504,0 -6.15625,0 0,-6.15625 0,-20.03125 0,-6.125 6.15625,0 15.062504,0 4.96875,0 z"
         style="opacity:0.97000002;fill:#101010;fill-opacity:0.85098039;stroke:none" />
      <path
         inkscape:export-ydpi="90"
         inkscape:export-xdpi="90"
         inkscape:export-filename="./prev-horizontal-left.png"
         sodipodi:type="star"
         style="fill:#1a1a1a;fill-opacity:1;stroke:none;filter:url(#filter3643)"
         id="path3749"
         sodipodi:sides="3"
         sodipodi:cx="279.55972"
         sodipodi:cy="297.5257"
         sodipodi:r1="9.5964489"
         sodipodi:r2="4.7982244"
         sodipodi:arg1="0"
         sodipodi:arg2="1.0471976"
         inkscape:flatsided="true"
         inkscape:rounded="0"
         inkscape:randomized="0"
         d="m 289.15617,297.5257 -14.39467,8.31076 0,-16.62153 14.39467,8.31077 z"
         transform="matrix(-1,0,0,1,384.27435,589.62077)" />
      <path
         inkscape:export-ydpi="90"
         inkscape:export-xdpi="90"
         inkscape:export-filename="./prev-horizontal-left.png"
         id="path3751"
         d="m 95.118176,887.14646 c 4.79822,2.77025 9.596454,5.54051 14.394674,8.31076 0,-5.54051 0,-11.08102 0,-16.62153 -4.79822,2.77025 -9.596454,5.54051 -14.394674,8.31077 z"
         style="fill:url(#linearGradient3759);fill-opacity:1;stroke:none" />
      <path
         inkscape:export-ydpi="90"
         inkscape:export-xdpi="90"
         inkscape:export-filename="./prev-horizontal-left.png"
         id="path3753"
         d="m 47.735596,870.99021 c 3.40193,0 6.125,2.72307 6.125,6.125 l 0,20.03125 c 0,3.40193 -2.72307,6.15625 -6.125,6.15625 l -4.96875,0 -15.0625,0 -6.15625,0 0,-6.15625 0,-20.03125 0,-6.125 6.15625,0 15.0625,0 4.96875,0 z"
         style="opacity:0.46613548;fill:#cccccc;fill-opacity:1;stroke:none" />
      <path
         inkscape:export-ydpi="90"
         inkscape:export-xdpi="90"
         inkscape:export-filename="./prev-horizontal-left.png"
         id="path3755"
         d="m 30.507016,887.14646 c 4.79822,2.77025 9.59645,5.54051 14.39467,8.31076 0,-5.54051 0,-11.08102 0,-16.62153 -4.79822,2.77025 -9.59645,5.54051 -14.39467,8.31077 z"
         style="opacity:0.8;fill:#f9f9f9;fill-opacity:1;stroke:none" />
    </g>
    <flowRoot
       xml:space="preserve"
       id="flowRoot3761"
       style="font-size:40px;font-style:normal;font-weight:normal;fill:#000000;fill-opacity:1;stroke:none;font-family:Bitstream Vera Sans"
       transform="translate(-83.844986,591.8411)"><flowRegion
         id="flowRegion3763"><rect
           id="rect3765"
           width="163.98517"
           height="52.677631"
           x="208.32962"
           y="281.245" /></flowRegion><flowPara
         id="flowPara3767"
         style="font-size:12px;font-style:normal;font-variant:normal;font-weight:normal;font-stretch:normal;font-family:FreeSans;-inkscape-font-specification:FreeSans">prev-horizontal</flowPara><flowPara
         style="font-size:12px;font-style:normal;font-variant:normal;font-weight:normal;font-stretch:normal;font-family:FreeSans;-inkscape-font-specification:FreeSans"
         id="flowPara3785">left</flowPara></flowRoot>    <flowRoot
       transform="translate(-84.012986,660.26199)"
       style="font-size:40px;font-style:normal;font-weight:normal;fill:#000000;fill-opacity:1;stroke:none;font-family:Bitstream Vera Sans"
       id="flowRoot3769"
       xml:space="preserve"><flowRegion
         id="flowRegion3771"><rect
           y="281.245"
           x="208.32962"
           height="52.677631"
           width="163.98517"
           id="rect3773" /></flowRegion><flowPara
         style="font-size:12px;font-style:normal;font-variant:normal;font-weight:normal;font-stretch:normal;font-family:FreeSans;-inkscape-font-specification:FreeSans"
         id="flowPara3775">next-horizontal</flowPara><flowPara
         style="font-size:12px;font-style:normal;font-variant:normal;font-weight:normal;font-stretch:normal;font-family:FreeSans;-inkscape-font-specification:FreeSans"
         id="flowPara3789">left</flowPara></flowRoot>    <flowRoot
       xml:space="preserve"
       id="flowRoot3777"
       style="font-size:40px;font-style:normal;font-weight:normal;fill:#000000;fill-opacity:1;stroke:none;font-family:Bitstream Vera Sans"
       transform="translate(-83.844986,624.88309)"><flowRegion
         id="flowRegion3779"><rect
           id="rect3781"
           width="163.98517"
           height="52.677631"
           x="208.32962"
           y="281.245" /></flowRegion><flowPara
         id="flowPara3783"
         style="font-size:12px;font-style:normal;font-variant:normal;font-weight:normal;font-stretch:normal;font-family:FreeSans;-inkscape-font-specification:FreeSans">prev-horizontal</flowPara><flowPara
         style="font-size:12px;font-style:normal;font-variant:normal;font-weight:normal;font-stretch:normal;font-family:FreeSans;-inkscape-font-specification:FreeSans"
         id="flowPara3787">right</flowPara></flowRoot>    <g
       id="g2941"
       inkscape:export-filename="./next-horizontal-right.png"
       inkscape:export-xdpi="90"
       inkscape:export-ydpi="90">
      <path
         inkscape:export-ydpi="90"
         inkscape:export-xdpi="90"
         inkscape:export-filename="./next-horizontal-right.png"
         style="opacity:0.97000002;fill:#101010;fill-opacity:0.85098039;stroke:none"
         d="m 59.970716,973.62153 c -3.40193,0 -6.125,2.72307 -6.125,6.125 l 0,20.03125 c 0,3.40192 2.72307,6.15622 6.125,6.15622 l 4.96875,0 15.0625,0 6.15625,0 0,-6.15622 0,-20.03125 0,-6.125 -6.15625,0 -15.0625,0 -4.96875,0 z"
         id="path3791" />
      <path
         inkscape:export-ydpi="90"
         inkscape:export-xdpi="90"
         inkscape:export-filename="./next-horizontal-right.png"
         transform="translate(-211.95686,692.25208)"
         d="m 289.15617,297.5257 -14.39467,8.31076 0,-16.62153 14.39467,8.31077 z"
         inkscape:randomized="0"
         inkscape:rounded="0"
         inkscape:flatsided="true"
         sodipodi:arg2="1.0471976"
         sodipodi:arg1="0"
         sodipodi:r2="4.7982244"
         sodipodi:r1="9.5964489"
         sodipodi:cy="297.5257"
         sodipodi:cx="279.55972"
         sodipodi:sides="3"
         id="path3793"
         style="fill:#1a1a1a;fill-opacity:1;stroke:none;filter:url(#filter3643)"
         sodipodi:type="star" />
      <path
         inkscape:export-ydpi="90"
         inkscape:export-xdpi="90"
         inkscape:export-filename="./next-horizontal-right.png"
         style="fill:url(#linearGradient3817);fill-opacity:1;stroke:none"
         d="m 77.199296,989.77778 c -4.79822,2.77025 -9.59645,5.54051 -14.39467,8.31076 0,-5.54051 0,-11.08102 0,-16.62153 4.79822,2.77025 9.59645,5.54051 14.39467,8.31077 z"
         id="path3795" />
      <path
         inkscape:export-ydpi="90"
         inkscape:export-xdpi="90"
         inkscape:export-filename="./next-horizontal-right.png"
         id="path3797"
         d="m 92.284256,973.62153 c -3.40193,0 -6.125,2.72307 -6.125,6.125 l 0,20.03125 c 0,3.40192 2.72307,6.15622 6.125,6.15622 l 4.96875,0 15.062504,0 6.15625,0 0,-6.15622 0,-20.03125 0,-6.125 -6.15625,0 -15.062504,0 -4.96875,0 z"
         style="opacity:0.97000002;fill:#101010;fill-opacity:0.85098039;stroke:none" />
      <path
         inkscape:export-ydpi="90"
         inkscape:export-xdpi="90"
         inkscape:export-filename="./next-horizontal-right.png"
         sodipodi:type="star"
         style="fill:#1a1a1a;fill-opacity:1;stroke:none;filter:url(#filter3643)"
         id="path3799"
         sodipodi:sides="3"
         sodipodi:cx="279.55972"
         sodipodi:cy="297.5257"
         sodipodi:r1="9.5964489"
         sodipodi:r2="4.7982244"
         sodipodi:arg1="0"
         sodipodi:arg2="1.0471976"
         inkscape:flatsided="true"
         inkscape:rounded="0"
         inkscape:randomized="0"
         d="m 289.15617,297.5257 -14.39467,8.31076 0,-16.62153 14.39467,8.31077 z"
         transform="translate(-179.64333,692.25208)" />
      <path
         inkscape:export-ydpi="90"
         inkscape:export-xdpi="90"
         inkscape:export-filename="./next-horizontal-right.png"
         id="path3801"
         d="m 109.51284,989.77778 c -4.79822,2.77025 -9.596454,5.54051 -14.394674,8.31076 0,-5.54051 0,-11.08102 0,-16.62153 4.79822,2.77025 9.596454,5.54051 14.394674,8.31077 z"
         style="fill:url(#linearGradient2961);fill-opacity:1;stroke:none" />
      <path
         inkscape:export-ydpi="90"
         inkscape:export-xdpi="90"
         inkscape:export-filename="./next-horizontal-right.png"
         id="path3803"
         d="m 27.673096,973.62153 c -3.40193,0 -6.125,2.72307 -6.125,6.125 l 0,20.03125 c 0,3.40192 2.72307,6.15622 6.125,6.15622 l 4.96875,0 15.0625,0 6.15625,0 0,-6.15622 0,-20.03125 0,-6.125 -6.15625,0 -15.0625,0 -4.96875,0 z"
         style="opacity:0.46613548;fill:#cccccc;fill-opacity:1;stroke:none" />
      <path
         inkscape:export-ydpi="90"
         inkscape:export-xdpi="90"
         inkscape:export-filename="./next-horizontal-right.png"
         id="path3805"
         d="m 44.901676,989.77778 c -4.79822,2.77025 -9.59645,5.54051 -14.39467,8.31076 0,-5.54051 0,-11.08102 0,-16.62153 4.79822,2.77025 9.59645,5.54051 14.39467,8.31077 z"
         style="opacity:0.8;fill:#f9f9f9;fill-opacity:1;stroke:none" />
    </g>
    <flowRoot
       xml:space="preserve"
       id="flowRoot3807"
       style="font-size:40px;font-style:normal;font-weight:normal;fill:#000000;fill-opacity:1;stroke:none;font-family:Bitstream Vera Sans"
       transform="translate(-84.024986,693.30241)"><flowRegion
         id="flowRegion3809"><rect
           id="rect3811"
           width="163.98517"
           height="52.677631"
           x="208.32962"
           y="281.245" /></flowRegion><flowPara
         id="flowPara3813"
         style="font-size:12px;font-style:normal;font-variant:normal;font-weight:normal;font-stretch:normal;font-family:FreeSans;-inkscape-font-specification:FreeSans">next-horizontal</flowPara><flowPara
         id="flowPara3815"
         style="font-size:12px;font-style:normal;font-variant:normal;font-weight:normal;font-stretch:normal;font-family:FreeSans;-inkscape-font-specification:FreeSans">right</flowPara></flowRoot>    <flowRoot
       xml:space="preserve"
       id="flowRoot3821"
       style="font-size:40px;font-style:normal;font-weight:normal;fill:#000000;fill-opacity:1;stroke:none;font-family:Bitstream Vera Sans"
       transform="translate(-174.46021,518.36095)"><flowRegion
         id="flowRegion3823"><rect
           id="rect3825"
           width="252.11275"
           height="50.927616"
           x="194.4509"
           y="269.08704" /></flowRegion><flowPara
         style="font-size:14px;font-style:normal;font-variant:normal;font-weight:bold;font-stretch:normal;font-family:FreeSerif;-inkscape-font-specification:FreeSerif Bold"
         id="flowPara3850">Cyclope3 GPL</flowPara><flowPara
         style="font-size:20px;font-style:normal;font-variant:normal;font-weight:normal;font-stretch:normal;font-family:FreeSerif;-inkscape-font-specification:FreeSerif"
         id="flowPara3866">Slider Standar Control Buttons</flowPara></flowRoot>    <flowRoot
       transform="translate(-174.46021,558.36095)"
       style="font-size:40px;font-style:normal;font-weight:normal;fill:#000000;fill-opacity:1;stroke:none;font-family:Bitstream Vera Sans"
       id="flowRoot3852"
       xml:space="preserve"><flowRegion
         id="flowRegion3854"><rect
           y="269.08704"
           x="194.4509"
           height="50.927616"
           width="252.11275"
           id="rect3856" /></flowRegion><flowPara
         id="flowPara3860"
         style="font-size:14px;font-style:normal;font-variant:normal;font-weight:normal;font-stretch:normal;font-family:FreeSerif;-inkscape-font-specification:FreeSerif">By Santiago Hoerth</flowPara></flowRoot>  </g>
</svg>
